<?xml version="1.0" standalone="no"?>
<!DOCTYPE svg PUBLIC "-//W3C//DTD SVG 20010904//EN" "http://www.w3.org/TR/2001/REC-SVG-20010904/DTD/svg10.dtd">
<!-- Created using Krita: https://krita.org -->
<svg xmlns="http://www.w3.org/2000/svg" 
    xmlns:xlink="http://www.w3.org/1999/xlink"
    xmlns:krita="http://krita.org/namespaces/svg/krita"
    xmlns:sodipodi="http://sodipodi.sourceforge.net/DTD/sodipodi-0.dtd"
    width="1382.4pt"
    height="777.6pt"
    viewBox="0 0 1382.4 777.6">
<defs/>
<path id="shape0" transform="matrix(-0.999999967043496 0 0 0.227185796375161 1383.79443845917 736.747583385513)" fill="#000b39" fill-opacity="0.72156862745098" stroke="#000000" stroke-opacity="0" stroke-width="0" stroke-linecap="square" stroke-linejoin="bevel" d="M0 56.8717C10.6151 20.8709 21.4391 21.0109 31.9471 0C35.9639 1.51753 27.1818 45.0002 16.7485 56.21C38.073 27.3115 42.0988 27.0678 90.7852 6.29412C66.2211 22.5757 48.857 37.7876 38.6929 51.9299C61.7798 36.0444 85.4822 26.7566 109.8 24.0666C98.4168 34.6147 85.7916 42.0439 76.113 57.7848C98.0112 40.3866 118.495 36.6587 138.989 32.838C129.772 40.1865 118.046 45.9216 115.06 57.2757C139.169 56.172 150.115 49.648 166.99 45.566C161.412 51.0829 156.242 55.8525 147.898 66.4398C167.434 65.4743 184.07 56.6781 198.81 42.7658C194.973 53.8951 192.089 64.4463 172.89 84.8858C203.418 57.8191 228.095 43.4396 246.922 41.7476C232.02 53.2594 220.453 66.2298 216.375 82.4769C246.786 72.4045 261.37 51.7801 280.44 34.1466C273.658 50.0136 272.961 60.9556 253.08 87.4266C271.953 73.7913 291.764 56.0342 307.44 56.4666C296.079 62.6034 286.317 70.6946 281.033 84.2588C300.619 69.9229 314.869 70.8351 329.908 69.4944C317.113 75.7991 308.46 84.9383 308.525 100.041C332.336 87.3485 333.24 90.4014 353.327 62.3668C353.181 75.6657 351.406 88.6024 345.181 100.551C357.658 95.1422 369.045 91.9112 387.36 74.8266C378.915 87.7988 376.89 97.3185 378.031 108.745C377.981 129.121 378.04 155.633 377.999 159.739L0 159.787C0 140.918 0.14687 83.3739 0 56.8717Z"/><path id="shape01" transform="matrix(-0.999999930050927 0 0 0.227185787970975 1006.61050934212 752.123872151891)" fill="#000b39" fill-opacity="0.72156862745098" stroke="#000000" stroke-opacity="0" stroke-width="0" stroke-linecap="square" stroke-linejoin="bevel" d="M0 32.5635C8.81102 11.9502 17.7954 12.0304 26.5176 0C29.8517 0.868904 22.5621 25.7661 13.902 32.1846C31.6023 15.638 34.9439 15.4984 75.3559 3.60387C54.9666 12.9263 40.5536 21.6363 32.1169 29.7339C51.2801 20.6382 70.9542 15.3202 91.139 13.78C81.6905 19.8196 71.211 24.0734 63.1773 33.0863C81.3538 23.1245 98.3563 20.9899 115.367 18.8023C107.717 23.0099 97.9836 26.2937 95.5051 32.7948C115.517 32.1628 124.602 28.4273 138.609 26.0901C133.979 29.2489 129.688 31.9799 122.762 38.0419C138.978 37.4891 152.787 32.4526 165.021 24.4867C161.837 30.8591 159.443 36.9005 143.507 48.6037C168.846 33.1059 189.329 24.8725 204.957 23.9037C192.587 30.4951 182.986 37.9217 179.601 47.2244C204.844 41.4572 216.949 29.6481 232.778 19.5516C227.149 28.6367 226.57 34.9018 210.068 50.0585C225.733 42.2512 242.178 32.0839 255.189 32.3315C245.759 35.8453 237.656 40.4781 233.27 48.2447C249.528 40.0363 261.356 40.5586 273.839 39.7909C263.218 43.4009 256.036 48.6338 256.09 57.2812C275.854 50.0138 276.605 51.7618 293.278 35.7098C293.156 43.3245 291.683 50.7317 286.516 57.5732C296.873 54.4763 306.324 52.6263 321.527 42.844C314.517 50.2716 312.836 55.7224 313.783 62.2649C313.742 73.9318 313.791 89.112 313.757 91.463L0 91.4904C0 80.6865 0.121909 47.738 0 32.5635Z"/><path id="shape02" transform="matrix(0.999999930050927 0 0 0.227185787970975 -1.39443845917526 736.559955802878)" fill="#000b39" fill-opacity="0.72156862745098" stroke="#000000" stroke-opacity="0" stroke-width="0" stroke-linecap="square" stroke-linejoin="bevel" d="M0 56.8717C10.6151 20.8709 21.4391 21.0109 31.9471 0C35.9639 1.51753 27.1818 45.0002 16.7485 56.21C38.073 27.3115 42.0988 27.0678 90.7852 6.29412C66.2211 22.5757 48.857 37.7876 38.6929 51.9299C61.7798 36.0444 85.4822 26.7566 109.8 24.0666C98.4168 34.6147 85.7916 42.0439 76.113 57.7848C98.0112 40.3866 118.495 36.6587 138.989 32.838C129.772 40.1865 118.046 45.9216 115.06 57.2757C139.169 56.172 150.115 49.648 166.99 45.566C161.412 51.0829 156.242 55.8525 147.898 66.4398C167.434 65.4743 184.07 56.6781 198.81 42.7658C194.973 53.8951 192.089 64.4463 172.89 84.8858C203.418 57.8191 228.095 43.4396 246.922 41.7476C232.02 53.2594 220.453 66.2298 216.375 82.4769C246.786 72.4045 261.37 51.7801 280.44 34.1466C273.658 50.0136 272.961 60.9556 253.08 87.4266C271.953 73.7913 291.764 56.0342 307.44 56.4666C296.079 62.6034 286.317 70.6946 281.033 84.2588C300.619 69.9229 314.869 70.8351 329.908 69.4944C317.113 75.7991 308.46 84.9383 308.525 100.041C332.336 87.3485 333.24 90.4014 353.327 62.3668C353.181 75.6657 351.406 88.6024 345.181 100.551C357.658 95.1422 369.045 91.9112 387.36 74.8266C378.915 87.7988 376.89 97.3185 378.031 108.745C377.981 129.121 378.04 155.633 377.999 159.739L0 159.787C0 140.918 0.14687 83.3739 0 56.8717Z"/><path id="shape03" transform="matrix(0.999999912406248 0 0 0.227185783962354 375.930477969789 750.598841137698)" fill="#000b39" fill-opacity="0.72156862745098" stroke="#000000" stroke-opacity="0" stroke-width="0" stroke-linecap="square" stroke-linejoin="bevel" d="M0 34.9989C8.91841 12.844 18.0123 12.9301 26.8407 0C30.2155 0.93389 22.8371 27.6932 14.0715 34.5917C31.9875 16.8075 35.3698 16.6576 76.2743 3.87341C55.6365 13.8931 41.0478 23.2545 32.5083 31.9577C51.9051 22.1818 71.8189 16.466 92.2498 14.8106C82.6861 21.3019 72.0789 25.8739 63.9473 35.5608C82.3453 24.854 99.555 22.5598 116.773 20.2086C109.03 24.7308 99.1778 28.2602 96.6691 35.2475C116.925 34.5683 126.121 30.5534 140.299 28.0414C135.612 31.4365 131.269 34.3717 124.258 40.8871C140.672 40.293 154.649 34.8798 167.033 26.3181C163.809 33.1671 161.386 39.6603 145.256 52.2388C170.904 35.582 191.637 26.7328 207.455 25.6915C194.934 32.7759 185.216 40.7579 181.79 50.7564C207.34 44.5578 219.593 31.8655 235.615 21.0139C229.917 30.7784 229.332 37.5122 212.628 53.8025C228.485 45.4113 245.129 34.4835 258.299 34.7496C248.754 38.5262 240.553 43.5056 236.113 51.853C252.569 43.0307 264.541 43.592 277.176 42.767C266.426 46.6469 259.156 52.2711 259.211 61.5654C279.216 53.7544 279.976 55.6331 296.852 38.3806C296.729 46.5648 295.238 54.526 290.008 61.8792C300.491 58.5506 310.058 56.5623 325.445 46.0484C318.35 54.0315 316.649 59.8899 317.607 66.9218C317.565 79.4612 317.615 95.7768 317.58 98.3036L0 98.3331C0 86.7211 0.123395 51.3084 0 34.9989Z"/>
</svg>
