<?xml version="1.0" standalone="no"?>
<!DOCTYPE svg PUBLIC "-//W3C//DTD SVG 20010904//EN" "http://www.w3.org/TR/2001/REC-SVG-20010904/DTD/svg10.dtd">
<!-- Created using Krita: https://krita.org -->
<svg xmlns="http://www.w3.org/2000/svg" 
    xmlns:xlink="http://www.w3.org/1999/xlink"
    xmlns:krita="http://krita.org/namespaces/svg/krita"
    xmlns:sodipodi="http://sodipodi.sourceforge.net/DTD/sodipodi-0.dtd"
    width="1382.4pt"
    height="777.6pt"
    viewBox="0 0 1382.4 777.6">
<defs/>
<path id="shape0" transform="matrix(0.931337291514297 0.364157777096955 -0.364157777096955 0.931337291514297 42.162518283292 662.494702970437)" fill="#000a35" fill-rule="evenodd" stroke="#000000" stroke-opacity="0" stroke-width="0" stroke-linecap="square" stroke-linejoin="bevel" d="M2.11676 61.3626C1.19847 61.3768 1.39817 61.2995 0.621619 61.4891C-2.0485 40.3866 4.08556 17.8636 15.1384 0C3.34177 24.4487 11.4452 14.4329 2.11676 61.3626Z"/><path id="shape01" transform="matrix(0.931337261539369 0.364157765376601 -0.364157765376601 0.931337261539369 40.3658127978861 668.796227274022)" fill="#5e6a9c" fill-rule="evenodd" stroke="#000000" stroke-opacity="0" stroke-width="0" stroke-linecap="square" stroke-linejoin="bevel" d="M0.346247 53.7326C0.0260973 53.7468 0.465728 53.6505 0.141264 53.7644C-0.789638 32.6619 2.90289 17.8007 10.5497 0C2.62211 22.848 3.59849 6.8029 0.346247 53.7326Z"/><path id="shape02" transform="matrix(0.519025282426754 0.0922911924736551 -0.0134726873582359 0.622055778980576 0.964070827739916 666.185204972029)" fill="#000a35" fill-rule="evenodd" stroke="#000000" stroke-opacity="0" stroke-width="0" stroke-linecap="square" stroke-linejoin="bevel" d="M2.11676 61.3626C1.19847 61.3768 1.39817 61.2995 0.62162 61.4891C-2.0485 40.3866 4.08556 17.8636 15.1384 0C3.34177 24.4487 11.4452 14.4329 2.11676 61.3626Z"/><path id="shape01" transform="matrix(0.519025265722016 0.0922911895032797 -0.0134726869246198 0.62205575895982 1.19871458995898 670.300305550443)" fill="#5e6a9c" fill-rule="evenodd" stroke="#000000" stroke-opacity="0" stroke-width="0" stroke-linecap="square" stroke-linejoin="bevel" d="M0.346247 53.7326C0.0260976 53.7468 0.465728 53.6505 0.141264 53.7644C-0.789638 32.6619 2.90289 17.8007 10.5497 0C2.62211 22.848 3.59849 6.8029 0.346247 53.7326Z"/><path id="shape03" transform="matrix(0.980001525599367 0.428661881916541 -0.383185748456 1.09630720854626 24.624132995101 639.003442430235)" fill="#000a35" fill-rule="evenodd" stroke="#000000" stroke-opacity="0" stroke-width="0" stroke-linecap="square" stroke-linejoin="bevel" d="M2.11676 61.3626C1.19847 61.3768 1.39817 61.2995 0.62162 61.4891C-2.0485 40.3866 4.08556 17.8636 15.1384 0C3.34177 24.4487 11.4452 14.4329 2.11676 61.3626Z"/><path id="shape011" transform="matrix(0.980001494058189 0.428661868120134 -0.383185736123234 1.0963071732618 22.7335464545957 646.421170403855)" fill="#5e6a9c" fill-rule="evenodd" stroke="#000000" stroke-opacity="0" stroke-width="0" stroke-linecap="square" stroke-linejoin="bevel" d="M0.346247 53.7326C0.0260976 53.7468 0.465728 53.6505 0.141264 53.7644C-0.789638 32.6619 2.90289 17.8007 10.5497 0C2.62211 22.848 3.59849 6.8029 0.346247 53.7326Z"/><path id="shape04" transform="matrix(0.377092209804313 0.269928855944607 -0.265123635161249 0.409317149947199 20.5940185442933 679.017936160169)" fill="#000a35" fill-rule="evenodd" stroke="#000000" stroke-opacity="0" stroke-width="0" stroke-linecap="square" stroke-linejoin="bevel" d="M2.11676 61.3626C1.19847 61.3768 1.39817 61.2995 0.62162 61.4891C-2.0485 40.3866 4.08556 17.8636 15.1384 0C3.34177 24.4487 11.4452 14.4329 2.11676 61.3626Z"/><path id="shape012" transform="matrix(0.377092197667666 0.269928847256994 -0.265123626628291 0.409317136773398 19.8221104597697 680.976506136231)" fill="#5e6a9c" fill-rule="evenodd" stroke="#000000" stroke-opacity="0" stroke-width="0" stroke-linecap="square" stroke-linejoin="bevel" d="M0.346247 53.7326C0.0260976 53.7468 0.465728 53.6505 0.141264 53.7644C-0.789638 32.6619 2.90289 17.8007 10.5497 0C2.62211 22.848 3.59849 6.8029 0.346247 53.7326Z"/><path id="shape05" transform="matrix(0.975626567707432 0.219437644480998 -0.219437644480998 0.975626567707432 43.3991550337076 681.604986971499)" fill="#000a35" fill-rule="evenodd" stroke="#000000" stroke-opacity="0" stroke-width="0" stroke-linecap="square" stroke-linejoin="bevel" d="M2.11676 61.3626C1.19847 61.3768 1.39817 61.2995 0.62162 61.4891C-2.0485 40.3866 4.08556 17.8636 15.1384 0C3.34177 24.4487 11.4452 14.4329 2.11676 61.3626Z"/><path id="shape013" transform="matrix(0.97562653630706 0.219437637418436 -0.219437637418436 0.97562653630706 42.5739997897441 688.105485436185)" fill="#5e6a9c" fill-rule="evenodd" stroke="#000000" stroke-opacity="0" stroke-width="0" stroke-linecap="square" stroke-linejoin="bevel" d="M0.346247 53.7326C0.0260976 53.7468 0.465728 53.6505 0.141264 53.7644C-0.789638 32.6619 2.90289 17.8007 10.5497 0C2.62211 22.848 3.59849 6.8029 0.346247 53.7326Z"/><path id="shape06" transform="matrix(0.282262335752372 0.317091427995143 -0.300842191591278 0.497524404875314 25.5711088595071 690.753151349965)" fill="#000a35" fill-rule="evenodd" stroke="#000000" stroke-opacity="0" stroke-width="0" stroke-linecap="square" stroke-linejoin="bevel" d="M2.11676 61.3626C1.19847 61.3768 1.39817 61.2995 0.62162 61.4891C-2.0485 40.3866 4.08556 17.8636 15.1384 0C3.34177 24.4487 11.4452 14.4329 2.11676 61.3626Z"/><path id="shape014" transform="matrix(0.282262326667808 0.317091417789612 -0.300842181908725 0.497524388862577 23.784077371927 694.195611018007)" fill="#5e6a9c" fill-rule="evenodd" stroke="#000000" stroke-opacity="0" stroke-width="0" stroke-linecap="square" stroke-linejoin="bevel" d="M0.346247 53.7326C0.0260976 53.7468 0.465728 53.6505 0.141264 53.7644C-0.789638 32.6619 2.90289 17.8007 10.5497 0C2.62211 22.848 3.59849 6.8029 0.346247 53.7326Z"/><path id="shape07" transform="matrix(-1.83248220227544 0.999002092194351 0.716510174595659 2.55495821118681 1341.38916805581 580.060646748184)" fill="#000a35" fill-rule="evenodd" stroke="#000000" stroke-opacity="0" stroke-width="0" stroke-linecap="square" stroke-linejoin="bevel" d="M2.11676 61.3626C1.19847 61.3768 1.39817 61.2995 0.62162 61.4891C-2.0485 40.3866 4.08556 17.8636 15.1384 0C3.34177 24.4487 11.4452 14.4329 2.11676 61.3626Z"/><path id="shape015" transform="matrix(-1.83248214329732 0.999002060041644 0.716510151534905 2.55495812895593 1338.15511224514 589.371903223157)" fill="#5e6a9c" fill-rule="evenodd" stroke="#000000" stroke-opacity="0" stroke-width="0" stroke-linecap="square" stroke-linejoin="bevel" d="M0.346247 53.7326C0.0260976 53.7468 0.465728 53.6505 0.141264 53.7644C-0.789638 32.6619 2.90289 17.8007 10.5497 0C2.62211 22.848 3.59849 6.8029 0.346247 53.7326Z"/><path id="shape08" transform="matrix(-1.20198149907176 0.673227757588609 0.469981085050236 1.72178697190884 1331.84439506392 646.75495843329)" fill="#000a35" fill-rule="evenodd" stroke="#000000" stroke-opacity="0" stroke-width="0" stroke-linecap="square" stroke-linejoin="bevel" d="M2.11676 61.3626C1.19847 61.3768 1.39817 61.2995 0.62162 61.4891C-2.0485 40.3866 4.08556 17.8636 15.1384 0C3.34177 24.4487 11.4452 14.4329 2.11676 61.3626Z"/><path id="shape016" transform="matrix(-1.20198146038619 0.673227735920891 0.469981069923978 1.72178691649343 1329.72307851454 653.029816348887)" fill="#5e6a9c" fill-rule="evenodd" stroke="#000000" stroke-opacity="0" stroke-width="0" stroke-linecap="square" stroke-linejoin="bevel" d="M0.346247 53.7326C0.0260979 53.7468 0.465728 53.6505 0.141264 53.7644C-0.789638 32.6619 2.90289 17.8007 10.5497 0C2.62211 22.848 3.59849 6.8029 0.346247 53.7326Z"/><path id="shape017" transform="matrix(-1.20198147179914 0.673227742313262 0.4699810743865 1.72178693284199 1333.51798647129 662.99714128172)" fill="#5e6a9c" fill-rule="evenodd" stroke="#000000" stroke-opacity="0" stroke-width="0" stroke-linecap="square" stroke-linejoin="bevel" d="M0.346247 53.7326C0.0260982 53.7468 0.465728 53.6505 0.141264 53.7644C-0.789638 32.6619 2.90289 17.8007 10.5497 0C2.62211 22.848 3.59849 6.8029 0.346247 53.7326Z"/><path id="shape09" transform="matrix(-0.815414685242307 0.894114828637251 0.318831428630165 2.28670794688007 1294.93627911314 624.353823432805)" fill="#000a35" fill-rule="evenodd" stroke="#000000" stroke-opacity="0" stroke-width="0" stroke-linecap="square" stroke-linejoin="bevel" d="M2.11676 61.3626C1.19847 61.3768 1.39817 61.2995 0.62162 61.4891C-2.0485 40.3866 4.08556 17.8636 15.1384 0C3.34177 24.4487 11.4452 14.4329 2.11676 61.3626Z"/><path id="shape018" transform="matrix(-0.815414658998324 0.894114799860321 0.318831418368631 2.28670787328278 1293.4971950035 632.687471784902)" fill="#5e6a9c" fill-rule="evenodd" stroke="#000000" stroke-opacity="0" stroke-width="0" stroke-linecap="square" stroke-linejoin="bevel" d="M0.346247 53.7326C0.0260982 53.7468 0.465728 53.6505 0.141264 53.7644C-0.789638 32.6619 2.90289 17.8007 10.5497 0C2.62211 22.848 3.59849 6.8029 0.346247 53.7326Z"/><path id="shape011" transform="matrix(-0.815414666740778 0.894114808350039 0.31883142139597 2.28670789499533 1296.07163036666 645.925091481707)" fill="#5e6a9c" fill-rule="evenodd" stroke="#000000" stroke-opacity="0" stroke-width="0" stroke-linecap="square" stroke-linejoin="bevel" d="M0.346247 53.7326C0.0260985 53.7468 0.465728 53.6505 0.141264 53.7644C-0.789638 32.6619 2.90289 17.8007 10.5497 0C2.62211 22.848 3.59849 6.8029 0.346247 53.7326Z"/><path id="shape010" transform="matrix(-1.20198152640489 0.673227772897849 0.469981095737634 1.72178701106238 1289.39390870566 663.401245106529)" fill="#000a35" fill-rule="evenodd" stroke="#000000" stroke-opacity="0" stroke-width="0" stroke-linecap="square" stroke-linejoin="bevel" d="M2.11676 61.3626C1.19847 61.3768 1.39817 61.2995 0.62162 61.4891C-2.0485 40.3866 4.08556 17.8636 15.1384 0C3.34177 24.4487 11.4452 14.4329 2.11676 61.3626Z"/><path id="shape019" transform="matrix(-1.20198148771932 0.67322775123013 0.469981080611376 1.72178695564697 1287.27259234229 669.67610303361)" fill="#5e6a9c" fill-rule="evenodd" stroke="#000000" stroke-opacity="0" stroke-width="0" stroke-linecap="square" stroke-linejoin="bevel" d="M0.346247 53.7326C0.0260982 53.7468 0.465728 53.6505 0.141264 53.7644C-0.789638 32.6619 2.90289 17.8007 10.5497 0C2.62211 22.848 3.59849 6.8029 0.346247 53.7326Z"/><path id="shape0111" transform="matrix(-1.20198149913227 0.673227757622502 0.469981085073898 1.72178697199553 1291.06750038534 679.6434281931)" fill="#5e6a9c" fill-rule="evenodd" stroke="#000000" stroke-opacity="0" stroke-width="0" stroke-linecap="square" stroke-linejoin="bevel" d="M0.346247 53.7326C0.0260985 53.7468 0.465728 53.6505 0.141264 53.7644C-0.789638 32.6619 2.90289 17.8007 10.5497 0C2.62211 22.848 3.59849 6.8029 0.346247 53.7326Z"/><path id="shape011" transform="matrix(0.419642951527788 0.0641777261305577 0.0856389498681717 0.575067391120936 1053.82461826219 731.981210200366)" fill="#000a35" fill-rule="evenodd" stroke="#000000" stroke-opacity="0" stroke-width="0" stroke-linecap="square" stroke-linejoin="bevel" d="M2.11676 61.3626C1.19847 61.3768 1.39817 61.2995 0.62162 61.4891C-2.0485 40.3866 4.08556 17.8636 15.1384 0C3.34177 24.4487 11.4452 14.4329 2.11676 61.3626Z"/><path id="shape0110" transform="matrix(0.419642938021653 0.0641777240650088 0.0856389471118965 0.575067372612492 1054.64402266088 735.772329461867)" fill="#5e6a9c" fill-rule="evenodd" stroke="#000000" stroke-opacity="0" stroke-width="0" stroke-linecap="square" stroke-linejoin="bevel" d="M0.346247 53.7326C0.0260979 53.7468 0.465728 53.6505 0.141264 53.7644C-0.789638 32.6619 2.90289 17.8007 10.5497 0C2.62211 22.848 3.59849 6.8029 0.346247 53.7326Z"/><path id="shape012" transform="matrix(0.825546018402675 0.125462873901798 0.168473922477341 1.12421570422216 1058.58643918832 694.439978280554)" fill="#000a35" fill-rule="evenodd" stroke="#000000" stroke-opacity="0" stroke-width="0" stroke-linecap="square" stroke-linejoin="bevel" d="M2.11676 61.3626C1.19847 61.3768 1.39817 61.2995 0.62162 61.4891C-2.0485 40.3866 4.08556 17.8636 15.1384 0C3.34177 24.4487 11.4452 14.4329 2.11676 61.3626Z"/><path id="shape0111" transform="matrix(0.825545991832623 0.125462869863797 0.168473917055037 1.12421566803947 1060.19841901265 701.851345821304)" fill="#5e6a9c" fill-rule="evenodd" stroke="#000000" stroke-opacity="0" stroke-width="0" stroke-linecap="square" stroke-linejoin="bevel" d="M0.346247 53.7326C0.0260982 53.7468 0.465728 53.6505 0.141264 53.7644C-0.789638 32.6619 2.90289 17.8007 10.5497 0C2.62211 22.848 3.59849 6.8029 0.346247 53.7326Z"/><path id="shape013" transform="matrix(0.61750490489521 0.0745897509743299 0.126017776305172 0.668364806348981 1074.4264387112 720.3599774998)" fill="#000a35" fill-rule="evenodd" stroke="#000000" stroke-opacity="0" stroke-width="0" stroke-linecap="square" stroke-linejoin="bevel" d="M2.11676 61.3626C1.19847 61.3768 1.39817 61.2995 0.62162 61.4891C-2.0485 40.3866 4.08556 17.8636 15.1384 0C3.34177 24.4487 11.4452 14.4329 2.11676 61.3626Z"/><path id="shape0112" transform="matrix(0.617504885020925 0.0745897485736717 0.126017772249311 0.668364784837775 1075.63219275267 724.766157926342)" fill="#5e6a9c" fill-rule="evenodd" stroke="#000000" stroke-opacity="0" stroke-width="0" stroke-linecap="square" stroke-linejoin="bevel" d="M0.346247 53.7326C0.0260982 53.7468 0.465728 53.6505 0.141264 53.7644C-0.789638 32.6619 2.90289 17.8007 10.5497 0C2.62211 22.848 3.59849 6.8029 0.346247 53.7326Z"/><path id="shape014" transform="matrix(-0.390068938206222 -0.16752670451558 -0.376883683995426 0.442713447398722 33.0496692265982 684.909973235353)" fill="#000a35" fill-rule="evenodd" stroke="#000000" stroke-opacity="0" stroke-width="0" stroke-linecap="square" stroke-linejoin="bevel" d="M2.11676 61.3626C1.19847 61.3768 1.39817 61.2995 0.62162 61.4891C-2.0485 40.3866 4.08556 17.8636 15.1384 0C3.34177 24.4487 11.4452 14.4329 2.11676 61.3626Z"/><path id="shape0113" transform="matrix(-0.390068925651923 -0.167526699123763 -0.376883671865489 0.442713433150066 30.3488156469893 687.693747178383)" fill="#5e6a9c" fill-rule="evenodd" stroke="#000000" stroke-opacity="0" stroke-width="0" stroke-linecap="square" stroke-linejoin="bevel" d="M0.346247 53.7326C0.0260982 53.7468 0.465728 53.6505 0.141264 53.7644C-0.789638 32.6619 2.90289 17.8007 10.5497 0C2.62211 22.848 3.59849 6.8029 0.346247 53.7326Z"/><path id="shape0114" transform="matrix(-0.766947714893129 -0.330239775933601 -0.737676754247497 0.864914630408721 105.880688317447 690.911254615651)" fill="#000a35" fill-rule="evenodd" stroke="#000000" stroke-opacity="0" stroke-width="0" stroke-linecap="square" stroke-linejoin="bevel" d="M2.11676 61.3626C1.19847 61.3768 1.39817 61.2995 0.62162 61.4891C-2.0485 40.3866 4.08556 17.8636 15.1384 0C3.34177 24.4487 11.4452 14.4329 2.11676 61.3626Z"/><path id="shape0112" transform="matrix(-0.766947690209051 -0.330239765304892 -0.737676730505497 0.864914602571589 99.5739051880975 697.111664991396)" fill="#5e6a9c" fill-rule="evenodd" stroke="#000000" stroke-opacity="0" stroke-width="0" stroke-linecap="square" stroke-linejoin="bevel" d="M0.346247 53.7326C0.0260985 53.7468 0.465728 53.6505 0.141264 53.7644C-0.789638 32.6619 2.90289 17.8007 10.5497 0C2.62211 22.848 3.59849 6.8029 0.346247 53.7326Z"/><path id="shape02" transform="matrix(-0.563487304446221 -0.263359006212585 -0.460504101235502 0.500527652654182 45.843193086276 674.742765975431)" fill="#000a35" fill-rule="evenodd" stroke="#000000" stroke-opacity="0" stroke-width="0" stroke-linecap="square" stroke-linejoin="bevel" d="M2.11676 61.3626C1.19847 61.3768 1.39817 61.2995 0.62162 61.4891C-2.0485 40.3866 4.08556 17.8636 15.1384 0C3.34177 24.4487 11.4452 14.4329 2.11676 61.3626Z"/><path id="shape012" transform="matrix(-0.563487286310481 -0.263358997736422 -0.460504086414257 0.500527636544787 42.4891089294652 677.844118291296)" fill="#5e6a9c" fill-rule="evenodd" stroke="#000000" stroke-opacity="0" stroke-width="0" stroke-linecap="square" stroke-linejoin="bevel" d="M0.346247 53.7326C0.0260985 53.7468 0.465728 53.6505 0.141264 53.7644C-0.789638 32.6619 2.90289 17.8007 10.5497 0C2.62211 22.848 3.59849 6.8029 0.346247 53.7326Z"/>
</svg>
