<?xml version="1.0" standalone="no"?>
<!DOCTYPE svg PUBLIC "-//W3C//DTD SVG 20010904//EN" "http://www.w3.org/TR/2001/REC-SVG-20010904/DTD/svg10.dtd">
<!-- Created using Krita: https://krita.org -->
<svg xmlns="http://www.w3.org/2000/svg" 
    xmlns:xlink="http://www.w3.org/1999/xlink"
    xmlns:krita="http://krita.org/namespaces/svg/krita"
    xmlns:sodipodi="http://sodipodi.sourceforge.net/DTD/sodipodi-0.dtd"
    width="1152pt"
    height="207.36pt"
    viewBox="0 0 1152 207.36">
<defs/>
<path id="shape0" fill="#000000" fill-rule="evenodd" stroke="#000000" stroke-width="0.4104" stroke-linecap="square" stroke-linejoin="bevel" d="M0.54 0C21.2415 5.26382 43.0102 10.2767 66.7806 14.9913C85.4575 10.3048 88.6294 8.19336 118.655 1.01553C123.48 4.94104 137.092 15.2394 144.078 19.5987C151.146 24.0092 163.893 12.3868 191.459 3.05199C217.602 21.7711 216.432 25.0946 234.176 38.6823C323.365 47.2949 437.263 53.3808 591.3 56.16C973.483 44.7317 962.04 40.6356 1152.54 4.32C1153.03 42.9959 1153.03 109.956 1152.54 205.2L0.54 205.2C-0.18 200.16 -0.18 131.76 0.54 0Z"/>
</svg>
