<?xml version="1.0" standalone="no"?>
<!DOCTYPE svg PUBLIC "-//W3C//DTD SVG 20010904//EN" "http://www.w3.org/TR/2001/REC-SVG-20010904/DTD/svg10.dtd">
<!-- Created using Krita: https://krita.org -->
<svg xmlns="http://www.w3.org/2000/svg" 
    xmlns:xlink="http://www.w3.org/1999/xlink"
    xmlns:krita="http://krita.org/namespaces/svg/krita"
    xmlns:sodipodi="http://sodipodi.sourceforge.net/DTD/sodipodi-0.dtd"
    width="239.04pt"
    height="426.24pt"
    viewBox="0 0 239.04 426.24">
<defs/>
<path id="shape0"  fill="#000000" fill-rule="evenodd" stroke="#000000" stroke-opacity="0" stroke-width="0" stroke-linecap="square" stroke-linejoin="bevel" d="M0 266.627C14.0556 249.672 24.9082 239.517 32.5578 236.16C44.4378 230.34 50.9331 226.414 74.6778 201.96C78.3581 197.425 79.0021 195.079 80.933 190.893C83.4114 182.521 83.9437 177.121 85.0225 170.022C86.1463 159.499 87.4544 150.634 87.059 140.748C84.659 144.828 82.259 148.908 79.859 152.988C78.9603 157.669 77.0692 160.629 76.1178 167.94C76.1972 175.141 78.0042 180.534 79.0246 186.696L74.3178 178.47C71.2488 166.829 72.8994 162.006 73.9846 156.366C75.4756 149.904 76.9667 148.752 78.4578 145.08C79.0903 142.879 80.8771 140.294 82.1478 137.88L74.8578 146.52C70.5441 152.697 67.8856 162.706 67.1178 165.06C65.3791 170.299 65.837 174.17 66.4878 179.64C64.9962 175.332 63.8551 170.99 63.5446 166.446C64.7057 161.406 65.2885 156.366 67.8646 151.326C70.3679 146.543 72.4671 142.164 75.4246 136.926C77.683 131.642 79.515 127.637 82.4178 120.42C84.6106 112.778 87.2216 105.484 88.061 96.7139C88.0297 87.8242 88.0177 85.2333 87.3135 81.0536C86.6771 77.0305 86.0407 75.1191 85.4043 67.2438C87.3379 59.0429 89.8011 51.2561 95.9049 44.1427C99.9928 39.5868 100.837 40.2774 103.478 37.3332C106.933 35.1837 112.17 31.1551 119.633 32.0175L120.279 27.1509C121.372 24.6316 122.461 23.4204 124.527 22.0612C126.164 21.5909 128.097 20.8759 131.479 21.8052L127.298 23.1339C126.075 23.813 124.723 25.8065 124.009 27.8887C124.153 28.992 124.094 30.4758 124.626 31.6512L132.307 32.8148L136.698 36.6332L141.089 40.8334L146.053 47.1337L148.865 57.3661L151.025 67.8061L153.428 65.43C152.25 58.8611 150.863 52.3221 148.028 45.99L142.025 30.3661L134.825 25.3261L131.945 20.2861L132.88 19.546L133.745 18.8461L136.985 23.1661L137.589 16.6504C136.972 13.7527 136.117 11.4652 135.203 8.19C134.19 5.78837 133.948 3.96333 133.268 2.115L134.303 0L137.678 7.245C138.407 9.76429 139.761 11.2057 140.468 13.41C142.137 12.3031 143.652 11.2523 145.553 11.655C147.082 12.1966 149.065 14.1654 148.748 14.49C149.457 16.5019 150.114 18.7298 150.826 20.9778L149.49 27.2453C147.797 32.3585 152.928 37.8731 154.868 43.2C156.801 47.9507 159.155 54.7176 161.219 61.9055C161.516 67.3055 162.075 71.8708 163.041 77.2708C162.88 83.8116 163.369 90.5102 162.545 98.0461C161.422 102.768 161.108 106.683 157.865 113.526L155.705 117.846C156.312 121.577 156.727 125.196 159.305 130.086C160.36 135.214 162.244 140.987 164.827 147.302C167.222 149.492 165.408 152.462 170.708 159.12C173.87 163.292 176.437 169.838 180.158 180.09C181.38 186.175 181.083 188.077 180.673 192.996C179.102 187.862 179.125 187.512 178.351 184.77C175.832 178.03 170.991 169.736 168.008 165.15C164.08 159.577 161.498 156.296 157.505 153.486C159.914 157.561 162.384 161.538 164.138 166.68C165.424 171.174 165.735 177.436 166.658 183.6L169.025 194.166C167.263 194.701 184.694 207.075 193.145 218.646C199.265 224.766 205.385 230.886 211.505 237.006C219.94 247.99 228.293 259.035 232.745 273.006C229.122 274.158 228.454 275.68 217.265 275.886C216.441 274.41 217.691 271.958 211.505 273.006L207.545 277.686C203.648 275.638 202.74 274.017 201.065 272.286C199.033 271.078 196.767 270.104 192.065 271.566C191.355 275.523 193.024 278.686 196.385 281.286C197.099 285.264 194.598 287.161 189.545 287.406C186.028 287.38 181.515 288.491 180.185 285.966C180.657 282.985 179.738 282.097 177.427 283.3C175.116 284.504 171.298 283.274 165.972 279.609L159.354 281.137C159.134 285.534 157.522 287.59 158.208 292.592C157.863 294.227 157.961 296.648 157.954 299.974C157.874 304.474 160.107 311.53 161.825 318.726C164.422 325.957 165.585 332.614 165.785 338.886C166.797 348.301 166.551 356.877 166.145 365.346C165.877 369.814 166.811 372.746 166.118 377.64C164.862 382.29 165.245 384.89 166.838 389.7C167.895 393.676 167.205 397.666 167.918 400.5C166.506 401.927 164.473 403.828 162.584 404.618C160.256 404.088 158.242 404.261 153.698 401.04C152.316 398.599 154.15 395.685 154.058 392.76C155.121 389.684 154.817 386.494 156.038 384.84C156.17 375.405 154.879 368.805 153.675 359.816L146.802 335.887C144.465 325.563 143.869 325.687 139.116 300.865C138.434 295.9 137.948 290.984 138.607 286.355C136.06 288.154 135.19 292.251 127.418 289.26C128.11 283.828 127.082 280.116 123.458 279L114.727 277.339L116 291.594L114.473 310.941L109.587 333.576C109.057 340.823 107.468 346.981 107.806 356.74C107.371 366.579 104.673 374.006 107.6 387.817C107.662 390.063 107.647 392.154 108.363 395.708C109.406 397.78 110.035 400.681 110.4 404.109C106.417 404.767 102.668 404.808 99.1991 404.109C96.5356 403.308 94.0594 401.758 92.0715 398.254C91.9108 394.291 92.492 390.081 93.3443 385.781C94.1305 382.775 94.5915 378.251 94.3625 370.507L88.2531 344.797C87.4787 331.939 88.6648 322.722 90.241 314.229C91.2493 308.159 92.7578 303.339 94.4412 298.956C92.0169 288.038 90.2169 283.05 88.4591 278.464L77.5617 278.612C79.7812 282.534 81.9947 286.455 78.9131 290.046C74.0062 290.574 71.4424 289.539 68.4762 288.773C66.6943 290.581 64.9124 290.932 63.1305 291.064L55.1605 290.321C51.5085 289.893 52.1502 290.539 43.6568 288.901C40.5753 286.694 41.0703 284.488 42.0021 282.282C34.3322 279.973 14.9741 279.463 19.4737 275.282C9.45146 273.608 2.96022 270.723 0 266.627Z"/>
</svg>
